<svg width="221" height="298" viewBox="0 0 221 298" fill="none" xmlns="http://www.w3.org/2000/svg">
<path d="M138.658 51.8591C164.871 59.4843 182.265 82.3871 170.9 121.458C159.534 160.528 158.831 175.451 164.078 197.535C174.892 243.058 146.045 297.116 73.4562 276" stroke="black" stroke-width="7"/>
<path d="M138.623 51.9812C156.08 57.7885 155.774 76.911 144.507 115.641C133.241 154.37 131.446 168.843 133.124 189.71C136.583 232.724 105.255 285.515 73.3852 276.244" stroke="black" stroke-width="7"/>
<path d="M73.4562 276L138.658 51.8591" stroke="black" stroke-width="7"/>
<path d="M138.658 51.8591C112.445 44.234 85.4799 54.2326 74.1144 93.3031C62.749 132.374 55.3375 145.345 39.0635 161.169C5.51812 193.787 0.867194 254.884 73.4562 276" stroke="black" stroke-width="7"/>
<path d="M138.623 51.9812C120.774 47.5183 110.775 63.8211 99.509 102.551C88.2427 141.28 81.994 154.458 69.3846 171.169C43.393 205.615 41.5154 266.974 73.3852 276.244" stroke="black" stroke-width="7"/>
<path d="M139.795 23.3721L135.142 50.8364L141.295 52.6262L156.397 23.6516L139.795 23.3721Z" stroke="black" stroke-width="7"/>
</svg>
